<svg version="1.1" id="Layer_1" xmlns="http://www.w3.org/2000/svg" x="0" y="0" viewBox="0 0 6036.83 1924.76" xml:space="preserve"><style>.st0{fill:#031422}.st3{fill:#fff}</style><path class="st0" d="M4017.7 473.2h130.55v838.86h148.86v125.83h-279.4V473.2zM4390.1 473.2h130.55v964.69H4390.1V473.2zM5046.88 1240.93V473.2h130.55v767.52c0 51.73 8.54 71.3 37.82 71.3 28.06 0 36.61-19.57 36.61-71.3V473.2h128.11v767.73c0 123.03-64.67 197.13-167.15 197.13-101.27 0-165.94-74.1-165.94-197.13zM5473.13 473.2h130.55v964.69h-130.55V473.2zM5696.42 473.2h169.59c113.47 0 170.82 67.11 170.82 199.93v564.83c0 132.82-57.35 199.93-170.82 199.93h-169.59V473.2zm157.39 838.86c41.49 0 52.47-16.78 52.47-83.89V682.92c0-67.11-10.98-83.89-52.47-83.89h-26.84v713.03h26.84zM4901.02 1486.22c-23.18 0-34.17-12.58-34.17-39.15v-29.63a145.152 145.152 0 0029.39-21.55c22.4-21 38.54-49.48 47.86-84.3l.51-1.91.12-.46c5.75-22.22 8.75-47.03 8.75-74.19V675.75c0-127.23-63.45-202.72-169.6-202.72-46.19 0-84.81 14.63-113.58 41.86-22.4 21-38.54 49.48-47.86 84.3-.17.63-.34 1.27-.51 1.91l-.12.46c-5.75 22.22-8.75 47.03-8.75 74.19v559.28c0 110.2 47.61 181.59 129.33 198.72v26.71c0 104.86 43.93 153.79 136.66 153.79h74.43v-128.04h-52.46zm-157.39-813.06c0-53.13 9.76-74.1 40.27-74.1 29.28 0 39.04 20.97 39.04 74.1v564.89c0 53.13-9.76 74.1-40.27 74.1-29.28 0-39.04-20.97-39.04-74.1V673.16z"/><g><g id="base_4_"><path d="M842.34 1912.51c-3.39-1.27-342.34-128.45-530.74-258.31C23.02 1455.4 10.22 1181.48 10.22 629.98V298.84l835.7-288.03 835.62 288.03v331.14c0 551.5-12.8 825.42-301.39 1024.22-188.39 129.86-527.27 257.04-530.66 258.31l-3.57 1.33-3.58-1.33z" fill="#0a1723" stroke="#031422" stroke-miterlimit="10"/><linearGradient id="SVGID_1_" gradientUnits="userSpaceOnUse" x1="103.908" y1="243.99" x2="1569.908" y2="1447.99"><stop offset="0" stop-color="#ad9742"/><stop offset=".486" stop-color="#c4ba40"/><stop offset="1" stop-color="#ad9742"/></linearGradient><path d="M845.92 21.63l825.41 284.51v323.85c0 545.64-11.23 818.98-296.97 1015.8-189.53 130.65-528.45 257.15-528.45 257.15s-338.97-126.5-528.51-257.15C31.67 1448.96 20.45 1175.62 20.45 629.98V306.13l825.47-284.5m0-21.63l-6.66 2.3L13.78 286.8 0 291.55v338.43c0 555.14 12.99 830.94 305.81 1032.64 189.43 130.58 519.02 254.27 532.96 259.47l7.15 2.67 7.15-2.67c13.94-5.2 343.46-128.88 532.9-259.47 292.81-201.7 305.81-477.5 305.81-1032.64V291.55L1678 286.8 852.58 2.3 845.92 0z" fill="url(#SVGID_1_)"/></g></g><g id="new_1_"><path class="st3" d="M335.24 1148.62c-51.79 25.54-120.59 55.73-196.81 82.48 13.46 57.98 31.92 109.76 57.2 156.69 56.99-36.23 107.41-72.82 146.34-103.47-5.41-47.43-7.56-92.67-6.73-135.7zM463.06 724.09l-.03.03c-96.39-38.48-240.57-107.42-360.75-198.17v133.03c0 24.86.05 48.96.13 72.59 112.43 42.45 227.58 69.02 309.04 83.05 15.53-32.42 32.93-62.53 51.61-90.53zM598.75 571.01c-66.61-68.43-159.7-176.89-230.95-296.41l-183.83 63.55c101.68 129.12 246.32 241.18 341.61 304.89 23.64-26.66 48.26-50.6 73.17-72.03zM682.98 508.03l-.02.02c34.01-21.9 66.87-39.06 96.57-51.89-27.55-74.71-60.55-182.33-80.34-296.12l-163.69 56.6c43.96 114.31 102.59 220.18 147.48 291.39zM372.06 915.03l-.05.11c-70.42 2.75-166.76 1.62-267.27-10.01 1.68 58.79 4.49 113.11 9.05 163.59 88.85-10.19 171.05-26.98 232.24-42.53v.03c6.28-39.2 15.12-76.22 26.03-111.19zM369.18 1435.28c-20.47 24.59-45.18 52.67-73.06 82.21 22.03 20.63 46.38 40.33 73.67 59.18 16.65 11.53 34.63 23 53.43 34.33-22.77-61.32-40.5-119.78-54.04-175.72zM1154.32 759.98c16.47 13.46 59.22.94 59.22.94l-30.96-36.81-66.27-44.21c0-.01 21.5 66.61 38.01 80.08zM1370.67 1128.54l-39.83-32.1 22.94 55.47 64.52-4.92z"/><path class="st3" d="M892.21 125.35c-27.4 87.71-36.04 195.58-5.13 301.56l-.71.2c.23 0 .49-.03.73-.03 11.04-11.47 95.75-99.93 171.72-183.36 0 0 100.18 114.95-39.89 233.28 0 0 249.73 174.55 265.88 182 0 0-12.96 54.29-.5 100.64l196.4 380.77-99.16 116.87-145.35-81.92 70.08 112.4s-79.2 9.83-103.34-2.17c-13.65-71.24-76.7-186.59-76.7-186.59l-147.91-59.89s-64.49-79.23-59.99-194.73c0 0-73.69 302.69 125.25 378.19L1322 1576.68c257.41-177.79 267.52-424.76 267.52-917.68V366.4L892.21 125.35z"/></g><g><path class="st0" d="M1957.84 599.03h102.49v838.86h130.55V599.03h102.49V473.2h-335.53zM2385.83 1437.89h291.61v-125.83h-161.05v-293.27h130.46V892.96h-130.46V599.03h161.05V473.2h-291.61zM2862.52 473.2l-91.51 964.69h125.67l14.64-204.12h75.65l15.86 204.12h131.77l-91.5-964.69h-180.58zm54.91 633.45l21.32-321.18c.17-13.94 2.81-19.41 10.81-19.31 7.68.1 10.18 5.63 10 19.57l21.32 320.92h-63.45zM3531.38 473.2s-44.59 430.15-44.61 430.97l-.9 8.71c-1.31 5.73-4.13 8.19-9.24 8.21-5.17.02-8.07-2.28-9.5-7.66l-1.14-11c0-.25-44.42-429.24-44.42-429.24h-194v964.69h112.25l.14-653c-.38-12.96 1.67-18.68 8.39-19.61h3.87c3.99.6 6.3 3.34 7.5 8.83l66.73 663.79h96.39l66.94-665.94c1.31-4.07 3.51-6.16 6.94-6.68h3.87c6.72.93 8.77 6.66 8.39 19.61l.49 653h129.33V473.2h-207.42z"/></g></svg>