<?xml version="1.0" encoding="utf-8"?>
<!-- Generator: Adobe Illustrator 24.0.2, SVG Export Plug-In . SVG Version: 6.00 Build 0)  -->
<svg version="1.1" id="Layer_1" xmlns="http://www.w3.org/2000/svg" xmlns:xlink="http://www.w3.org/1999/xlink" x="0px" y="0px"
	 viewBox="0 0 165.48 188.27" style="enable-background:new 0 0 165.48 188.27;" xml:space="preserve">
<style type="text/css">
	.st0{fill:#FFFFFF;}
</style>
<path class="st0" d="M82.74,1.06L1,29.23v32.39c0,53.95,1.25,80.74,29.48,100.19c18.43,12.7,51.58,25.14,51.92,25.27l0.35,0.13
	l0.35-0.13c0.33-0.12,33.48-12.56,51.91-25.27c28.23-19.45,29.48-46.24,29.48-100.19V29.23L82.74,1.06z M10.25,88.54
	c9.83,1.14,19.26,1.25,26.14,0.98l0-0.01c-1.07,3.42-1.93,7.04-2.55,10.88v0c-5.99,1.52-14.03,3.16-22.72,4.16
	C10.68,99.6,10.41,94.29,10.25,88.54z M19.14,135.75c-2.47-4.59-4.28-9.66-5.6-15.33c7.46-2.62,14.18-5.57,19.25-8.07
	c-0.08,4.21,0.13,8.63,0.66,13.27C29.64,128.63,24.71,132.2,19.14,135.75z M36.17,154.22c-2.67-1.84-5.05-3.77-7.21-5.79
	c2.73-2.89,5.14-5.64,7.15-8.04c1.32,5.47,3.06,11.19,5.29,17.19C39.56,156.47,37.8,155.35,36.17,154.22z M40.25,79.68
	c-7.97-1.37-19.23-3.97-30.23-8.12c-0.01-2.31-0.01-4.67-0.01-7.1V51.45c11.76,8.88,25.86,15.62,35.29,19.38l0,0
	C43.47,73.57,41.77,76.51,40.25,79.68z M51.41,62.9C42.09,56.67,27.94,45.71,18,33.08l17.98-6.22c6.97,11.69,16.07,22.3,22.59,28.99
	C56.13,57.95,53.72,60.29,51.41,62.9z M66.8,49.69L66.8,49.69c-4.39-6.97-10.12-17.32-14.42-28.5l16.01-5.54
	c1.94,11.13,5.16,21.66,7.86,28.96C73.35,45.87,70.13,47.55,66.8,49.69z M155.48,64.46c0,48.22-0.99,72.37-26.17,89.76l-27.23-34.64
	c-19.46-7.39-12.25-36.99-12.25-36.99c-0.44,11.3,5.87,19.05,5.87,19.05l14.47,5.86c0,0,6.17,11.28,7.5,18.25
	c2.36,1.17,10.11,0.21,10.11,0.21l-6.85-10.99l14.22,8.01l9.7-11.43L125.62,74.3c-1.22-4.53,0.05-9.84,0.05-9.84
	c-1.58-0.73-26.01-17.8-26.01-17.8c13.7-11.57,3.9-22.82,3.9-22.82C96.14,32,87.85,40.65,86.77,41.77c-0.02,0-0.05,0-0.07,0
	l0.07-0.02c-3.02-10.37-2.18-20.92,0.5-29.5l68.21,23.58V64.46z M109.19,66.5l6.48,4.32l3.03,3.6c0,0-4.18,1.22-5.79-0.09
	C111.3,73.02,109.19,66.5,109.19,66.5z M130.18,107.25l3.9,3.14l4.66,1.8l-6.31,0.48L130.18,107.25z"/>
</svg>
